<mxfile host="65bd71144e">
    <diagram id="C5RBs43oDa-KdzZeNtuy" name="Page-1">
        <mxGraphModel dx="1518" dy="747" grid="1" gridSize="10" guides="1" tooltips="1" connect="1" arrows="1" fold="1" page="0" pageScale="1" pageWidth="827" pageHeight="1169" background="none" math="0" shadow="0">
            <root>
                <mxCell id="WIyWlLk6GJQsqaUBKTNV-0"/>
                <mxCell id="WIyWlLk6GJQsqaUBKTNV-1" parent="WIyWlLk6GJQsqaUBKTNV-0"/>
                <mxCell id="0" value="" style="swimlane;fontSize=12;strokeColor=none;gradientColor=none;swimlaneFillColor=none;dashed=1;opacity=80;fillColor=none;swimlaneLine=0;" vertex="1" parent="WIyWlLk6GJQsqaUBKTNV-1">
                    <mxGeometry x="-50" y="50" width="400" height="750" as="geometry"/>
                </mxCell>
                <mxCell id="1" value="Production" style="swimlane;fontStyle=0;childLayout=stackLayout;horizontal=1;startSize=20;horizontalStack=0;resizeParent=1;resizeParentMax=0;resizeLast=0;collapsible=1;marginBottom=0;rounded=1;shadow=0;glass=0;fillColor=none;" vertex="1" parent="0">
                    <mxGeometry x="130" y="270" width="140" height="50" as="geometry"/>
                </mxCell>
                <mxCell id="2" value="identify-stimulus" style="text;strokeColor=none;fillColor=none;align=center;verticalAlign=middle;spacingLeft=4;spacingRight=4;overflow=hidden;points=[[0,0.5],[1,0.5]];portConstraint=eastwest;rotatable=0;rounded=1;shadow=0;glass=0;" vertex="1" parent="1">
                    <mxGeometry y="20" width="140" height="30" as="geometry"/>
                </mxCell>
                <mxCell id="3" value="Production" style="swimlane;fontStyle=0;childLayout=stackLayout;horizontal=1;startSize=20;horizontalStack=0;resizeParent=1;resizeParentMax=0;resizeLast=0;collapsible=1;marginBottom=0;rounded=1;shadow=0;glass=0;fillColor=none;" vertex="1" parent="0">
                    <mxGeometry x="130" y="350" width="140" height="50" as="geometry"/>
                </mxCell>
                <mxCell id="4" value="retrieve-response" style="text;strokeColor=none;fillColor=none;align=center;verticalAlign=middle;spacingLeft=4;spacingRight=4;overflow=hidden;points=[[0,0.5],[1,0.5]];portConstraint=eastwest;rotatable=0;rounded=1;shadow=0;glass=0;" vertex="1" parent="3">
                    <mxGeometry y="20" width="140" height="30" as="geometry"/>
                </mxCell>
                <mxCell id="5" value="Production" style="swimlane;fontStyle=0;childLayout=stackLayout;horizontal=1;startSize=20;horizontalStack=0;resizeParent=1;resizeParentMax=0;resizeLast=0;collapsible=1;marginBottom=0;rounded=1;shadow=0;glass=0;swimlaneFillColor=none;fillColor=none;" vertex="1" parent="0">
                    <mxGeometry x="55" y="570" width="140" height="50" as="geometry"/>
                </mxCell>
                <mxCell id="6" value="respond-if-O" style="text;strokeColor=none;fillColor=none;align=center;verticalAlign=middle;spacingLeft=4;spacingRight=4;overflow=hidden;points=[[0,0.5],[1,0.5]];portConstraint=eastwest;rotatable=0;rounded=1;shadow=0;glass=0;" vertex="1" parent="5">
                    <mxGeometry y="20" width="140" height="30" as="geometry"/>
                </mxCell>
                <mxCell id="7" value="Production" style="swimlane;fontStyle=0;childLayout=stackLayout;horizontal=1;startSize=20;horizontalStack=0;resizeParent=1;resizeParentMax=0;resizeLast=0;collapsible=1;marginBottom=0;rounded=1;shadow=0;glass=0;fillColor=none;" vertex="1" parent="0">
                    <mxGeometry x="205" y="570" width="140" height="50" as="geometry"/>
                </mxCell>
                <mxCell id="8" value="dont-respond-if-Q" style="text;strokeColor=none;fillColor=none;align=center;verticalAlign=middle;spacingLeft=4;spacingRight=4;overflow=hidden;points=[[0,0.5],[1,0.5]];portConstraint=eastwest;rotatable=0;rounded=1;shadow=0;glass=0;" vertex="1" parent="7">
                    <mxGeometry y="20" width="140" height="30" as="geometry"/>
                </mxCell>
                <mxCell id="9" value="Positive Reward&lt;br&gt;(to attend)" style="rounded=0;whiteSpace=wrap;html=1;fontSize=12;fillColor=none;" vertex="1" parent="0">
                    <mxGeometry x="140" y="660" width="120" height="50" as="geometry"/>
                </mxCell>
                <mxCell id="10" value="target stimulus" style="edgeStyle=orthogonalEdgeStyle;curved=1;rounded=0;orthogonalLoop=1;jettySize=auto;html=1;entryX=0.5;entryY=0;entryDx=0;entryDy=0;labelBackgroundColor=none;startArrow=none;fontSize=12;" edge="1" parent="0" source="16" target="5">
                    <mxGeometry x="0.2727" y="-15" relative="1" as="geometry">
                        <mxPoint as="offset"/>
                        <mxPoint x="203.99999999999977" y="470" as="sourcePoint"/>
                    </mxGeometry>
                </mxCell>
                <mxCell id="11" value="&lt;div style=&quot;font-size: 12px;&quot;&gt;non-target stimulus&lt;/div&gt;" style="edgeStyle=orthogonalEdgeStyle;curved=1;rounded=0;orthogonalLoop=1;jettySize=auto;html=1;labelBackgroundColor=none;exitX=0.5;exitY=1;exitDx=0;exitDy=0;fontSize=12;" edge="1" parent="0" source="16" target="7">
                    <mxGeometry x="0.3939" y="15" relative="1" as="geometry">
                        <mxPoint as="offset"/>
                        <mxPoint x="203.99999999999977" y="470" as="sourcePoint"/>
                    </mxGeometry>
                </mxCell>
                <mxCell id="12" style="edgeStyle=orthogonalEdgeStyle;curved=1;html=1;labelBackgroundColor=none;fontSize=12;endArrow=classic;endFill=1;" edge="1" parent="0" source="5" target="9">
                    <mxGeometry relative="1" as="geometry"/>
                </mxCell>
                <mxCell id="13" style="edgeStyle=orthogonalEdgeStyle;curved=1;html=1;labelBackgroundColor=none;fontSize=12;endArrow=classic;endFill=1;" edge="1" parent="0" source="7" target="9">
                    <mxGeometry relative="1" as="geometry"/>
                </mxCell>
                <mxCell id="14" value="" style="edgeStyle=orthogonalEdgeStyle;curved=1;rounded=0;orthogonalLoop=1;jettySize=auto;html=1;endArrow=classic;endFill=1;" edge="1" parent="0" source="1" target="3">
                    <mxGeometry relative="1" as="geometry">
                        <mxPoint x="204" y="240" as="sourcePoint"/>
                        <mxPoint x="204" y="340" as="targetPoint"/>
                    </mxGeometry>
                </mxCell>
                <mxCell id="15" style="edgeStyle=orthogonalEdgeStyle;curved=1;rounded=0;orthogonalLoop=1;jettySize=auto;html=1;startArrow=none;endArrow=none;endFill=0;entryX=0.5;entryY=0;entryDx=0;entryDy=0;" edge="1" parent="0" source="3" target="16">
                    <mxGeometry relative="1" as="geometry">
                        <mxPoint x="203.99999999999977" y="340" as="targetPoint"/>
                    </mxGeometry>
                </mxCell>
                <mxCell id="16" value="Positive Reward&lt;br&gt;(to attend)" style="rounded=0;whiteSpace=wrap;html=1;fontSize=12;fillColor=none;" vertex="1" parent="0">
                    <mxGeometry x="140" y="430" width="120" height="50" as="geometry"/>
                </mxCell>
                <mxCell id="17" value="Production" style="swimlane;fontStyle=0;childLayout=stackLayout;horizontal=1;startSize=20;horizontalStack=0;resizeParent=1;resizeParentMax=0;resizeLast=0;collapsible=1;marginBottom=0;rounded=1;shadow=0;glass=0;fillColor=none;" vertex="1" parent="0">
                    <mxGeometry x="130" y="170" width="140" height="50" as="geometry"/>
                </mxCell>
                <mxCell id="18" value="attend" style="text;strokeColor=none;fillColor=none;align=center;verticalAlign=middle;spacingLeft=4;spacingRight=4;overflow=hidden;points=[[0,0.5],[1,0.5]];portConstraint=eastwest;rotatable=0;rounded=1;shadow=0;glass=0;" vertex="1" parent="17">
                    <mxGeometry y="20" width="140" height="30" as="geometry"/>
                </mxCell>
                <mxCell id="19" style="edgeStyle=orthogonalEdgeStyle;curved=1;rounded=0;orthogonalLoop=1;jettySize=auto;html=1;entryX=0.5;entryY=0;entryDx=0;entryDy=0;" edge="1" parent="0" source="17" target="1">
                    <mxGeometry relative="1" as="geometry"/>
                </mxCell>
                <mxCell id="20" value="No" style="edgeStyle=none;html=1;entryX=0.5;entryY=0;entryDx=0;entryDy=0;fontSize=12;" edge="1" parent="0" source="21" target="17">
                    <mxGeometry y="10" relative="1" as="geometry">
                        <mxPoint as="offset"/>
                    </mxGeometry>
                </mxCell>
                <mxCell id="21" value="&lt;font style=&quot;font-size: 12px&quot;&gt;Attend utility&lt;br&gt;&amp;lt;&lt;br&gt;Wander utility&lt;br&gt;&lt;/font&gt;" style="rhombus;whiteSpace=wrap;html=1;fillColor=default;" vertex="1" parent="0">
                    <mxGeometry x="130" y="40" width="140" height="90" as="geometry"/>
                </mxCell>
                <mxCell id="22" style="edgeStyle=orthogonalEdgeStyle;curved=1;html=1;labelBackgroundColor=none;fontSize=12;endArrow=classic;endFill=1;" edge="1" parent="0" source="9">
                    <mxGeometry relative="1" as="geometry">
                        <mxPoint x="170" y="40" as="targetPoint"/>
                        <Array as="points">
                            <mxPoint x="204" y="720"/>
                            <mxPoint x="10" y="720"/>
                            <mxPoint x="10" y="40"/>
                        </Array>
                    </mxGeometry>
                </mxCell>
                <mxCell id="23" value="stimulus appearance" style="endArrow=none;dashed=1;html=1;dashPattern=1 3;strokeWidth=2;rounded=0;curved=1;fontStyle=2;spacingLeft=15;labelBackgroundColor=none;fontSize=13;" edge="1" parent="WIyWlLk6GJQsqaUBKTNV-1">
                    <mxGeometry x="0.561" y="10" width="50" height="50" relative="1" as="geometry">
                        <mxPoint x="-50" y="300" as="sourcePoint"/>
                        <mxPoint x="360" y="300" as="targetPoint"/>
                        <mxPoint as="offset"/>
                    </mxGeometry>
                </mxCell>
            </root>
        </mxGraphModel>
    </diagram>
</mxfile>